<svg width="1820" height="1059" xmlns="http://www.w3.org/2000/svg" xmlns:xlink="http://www.w3.org/1999/xlink" xml:space="preserve" overflow="hidden"><defs><clipPath id="clip0"><rect x="2172" y="1136" width="1820" height="1059"/></clipPath></defs><g clip-path="url(#clip0)" transform="translate(-2172 -1136)"><rect x="2446" y="1276" width="1532" height="769" fill="#C9C668" fill-opacity="0.901961"/><rect x="2446.5" y="1142.5" width="553" height="139" fill="#6F9ABD" fill-opacity="1"/><path d="M2446.04 1142.5C2446.04 1142.25 2446.25 1142.04 2446.5 1142.04L2999.5 1142.04C2999.75 1142.04 2999.96 1142.25 2999.96 1142.5L2999.96 1281.5C2999.96 1281.75 2999.75 1281.96 2999.5 1281.96L2446.5 1281.96C2446.25 1281.96 2446.04 1281.75 2446.04 1281.5ZM2446.59 1281.41 2999.41 1281.41 2999.41 1142.59 2446.59 1142.59ZM2446.77 1142.78 2999.23 1142.78 2999.23 1281.22 2446.77 1281.22ZM2446.96 1281.04 2999.04 1281.04 2999.04 1142.96 2446.96 1142.96Z" fill="#31859C" fill-rule="nonzero" fill-opacity="1"/><text fill="#FFFFFF" fill-opacity="1" font-family="Arial,Arial_MSFontService,sans-serif" font-style="normal" font-variant="normal" font-weight="700" font-stretch="normal" font-size="55" text-anchor="start" direction="ltr" writing-mode="lr-tb" unicode-bidi="normal" text-decoration="none" transform="matrix(1 0 0 1 2601.73 1231)">Producer</text><rect x="3071.5" y="1141.5" width="553" height="140" stroke="#31859C" stroke-width="0.916667" stroke-linecap="butt" stroke-linejoin="round" stroke-miterlimit="10" stroke-opacity="1" fill="#6F9ABD" fill-opacity="1"/><rect x="3206.5" y="2052.5" width="555" height="139" fill="#6F9ABD" fill-opacity="1"/><path d="M3206.04 2052.5C3206.04 2052.25 3206.25 2052.04 3206.5 2052.04L3761.5 2052.04C3761.75 2052.04 3761.96 2052.25 3761.96 2052.5L3761.96 2191.5C3761.96 2191.75 3761.75 2191.96 3761.5 2191.96L3206.5 2191.96C3206.25 2191.96 3206.04 2191.75 3206.04 2191.5ZM3206.59 2191.41 3761.41 2191.41 3761.41 2052.59 3206.59 2052.59ZM3206.77 2052.77 3761.23 2052.77 3761.23 2191.22 3206.77 2191.22ZM3206.96 2191.04 3761.04 2191.04 3761.04 2052.96 3206.96 2052.96Z" fill="#31859C" fill-rule="nonzero" fill-opacity="1"/><text fill="#FFFFFF" fill-opacity="1" font-family="Arial,Arial_MSFontService,sans-serif" font-style="normal" font-variant="normal" font-weight="700" font-stretch="normal" font-size="55" text-anchor="start" direction="ltr" writing-mode="lr-tb" unicode-bidi="normal" text-decoration="none" transform="matrix(1 0 0 1 3347.79 2141)">Consumer</text><rect x="2174" y="1161" width="252" height="100" fill="#FFFFFF" fill-opacity="1"/><text fill="#000000" fill-opacity="1" font-family="Arial,Arial_MSFontService,sans-serif" font-style="normal" font-variant="normal" font-weight="700" font-stretch="normal" font-size="55" text-anchor="start" direction="ltr" writing-mode="lr-tb" unicode-bidi="normal" text-decoration="none" transform="matrix(1 0 0 1 2206.82 1231)">Node</text><text fill="#000000" fill-opacity="1" font-family="Arial,Arial_MSFontService,sans-serif" font-style="normal" font-variant="normal" font-weight="700" font-stretch="normal" font-size="55" text-anchor="start" direction="ltr" writing-mode="lr-tb" unicode-bidi="normal" text-decoration="none" transform="matrix(1 0 0 1 2359.79 1231)">1</text><rect x="2174" y="2071" width="252" height="100" fill="#FFFFFF" fill-opacity="1"/><text fill="#000000" fill-opacity="1" font-family="Arial,Arial_MSFontService,sans-serif" font-style="normal" font-variant="normal" font-weight="700" font-stretch="normal" font-size="55" text-anchor="start" direction="ltr" writing-mode="lr-tb" unicode-bidi="normal" text-decoration="none" transform="matrix(1 0 0 1 2206.82 2141)">Node</text><text fill="#000000" fill-opacity="1" font-family="Arial,Arial_MSFontService,sans-serif" font-style="normal" font-variant="normal" font-weight="700" font-stretch="normal" font-size="55" text-anchor="start" direction="ltr" writing-mode="lr-tb" unicode-bidi="normal" text-decoration="none" transform="matrix(1 0 0 1 2359.79 2141)">2</text><path d="M3624.5 1209.21 3813.56 1209.5C3814.82 1209.5 3815.85 1210.53 3815.84 1211.79 3815.84 1213.06 3814.81 1214.08 3813.55 1214.08L3624.5 1213.79C3623.23 1213.79 3622.21 1212.76 3622.21 1211.5 3622.21 1210.23 3623.24 1209.21 3624.5 1209.21ZM3808.98 1202.62 3836.47 1211.83 3808.95 1220.95Z" fill="#4A7EBB" fill-rule="nonzero" fill-opacity="1"/><path d="M2461.5 2121.5 3206.84 2121.5" stroke="#4A7EBB" stroke-width="4.58333" stroke-linecap="round" stroke-linejoin="round" stroke-miterlimit="10" stroke-opacity="1" fill="none" fill-rule="evenodd"/><path d="M3760.5 2114.21 3823.07 2114.21C3824.34 2114.21 3825.36 2115.23 3825.36 2116.5 3825.36 2117.77 3824.34 2118.79 3823.07 2118.79L3760.5 2118.79C3759.23 2118.79 3758.21 2117.77 3758.21 2116.5 3758.21 2115.23 3759.23 2114.21 3760.5 2114.21ZM3818.49 2107.33 3845.99 2116.5 3818.49 2125.67Z" fill="#4A7EBB" fill-rule="nonzero" fill-opacity="1"/><path d="M2837.5 1410.5C2837.5 1425.41 2942.27 1437.5 3071.5 1437.5 3200.73 1437.5 3305.5 1425.41 3305.5 1410.5L3305.5 1572.5C3305.5 1587.41 3200.73 1599.5 3071.5 1599.5 2942.27 1599.5 2837.5 1587.41 2837.5 1572.5Z" fill="#C8E37D" fill-rule="evenodd" fill-opacity="1"/><path d="M2837.5 1410.5C2837.5 1395.59 2942.27 1383.5 3071.5 1383.5 3200.73 1383.5 3305.5 1395.59 3305.5 1410.5 3305.5 1425.41 3200.73 1437.5 3071.5 1437.5 2942.27 1437.5 2837.5 1425.41 2837.5 1410.5Z" fill="#DEEEB1" fill-rule="evenodd" fill-opacity="1"/><path d="M3305.95 1410.6 3305.64 1411.99C3305.63 1412.04 3305.61 1412.09 3305.58 1412.14L3304.67 1413.51C3304.65 1413.55 3304.63 1413.57 3304.6 1413.6L3303.11 1414.95C3303.09 1414.97 3303.07 1414.98 3303.05 1415L3300.99 1416.33 3298.34 1417.66 3295.15 1418.95 3291.45 1420.22 3287.24 1421.45 3282.54 1422.65 3277.36 1423.82 3271.71 1424.95 3265.62 1426.05 3259.09 1427.11 3252.13 1428.13 3244.77 1429.11 3237.02 1430.05 3228.89 1430.94 3220.39 1431.79 3202.37 1433.35 3183.07 1434.7 3162.61 1435.84 3141.1 1436.74 3118.67 1437.41 3095.43 1437.82 3071.5 1437.96 3047.57 1437.82 3024.33 1437.41 3001.9 1436.74 2980.4 1435.84 2959.94 1434.7 2940.64 1433.35 2922.61 1431.79 2914.12 1430.94 2905.99 1430.05 2898.23 1429.11 2890.87 1428.13 2883.92 1427.11 2877.39 1426.05 2871.3 1424.95 2865.65 1423.82 2860.47 1422.65 2855.78 1421.45 2851.57 1420.22 2847.87 1418.96 2844.69 1417.67 2842.05 1416.35 2839.95 1415C2839.93 1414.98 2839.91 1414.97 2839.89 1414.95L2838.4 1413.6C2838.37 1413.57 2838.35 1413.55 2838.33 1413.51L2837.42 1412.14C2837.39 1412.09 2837.37 1412.04 2837.36 1411.99L2837.05 1410.6C2837.04 1410.53 2837.04 1410.47 2837.05 1410.4L2837.36 1409.01C2837.37 1408.96 2837.39 1408.91 2837.42 1408.86L2838.33 1407.49C2838.35 1407.46 2838.37 1407.43 2838.4 1407.4L2839.89 1406.05C2839.91 1406.03 2839.93 1406.02 2839.95 1406L2842.01 1404.67 2844.66 1403.34 2847.85 1402.05 2851.55 1400.78 2855.76 1399.55 2860.46 1398.35 2865.64 1397.18 2871.29 1396.05 2877.38 1394.95 2883.91 1393.89 2890.87 1392.87 2898.23 1391.89 2905.98 1390.95 2914.11 1390.06 2922.61 1389.21 2940.63 1387.65 2959.93 1386.3 2980.39 1385.16 3001.9 1384.26 3024.33 1383.59 3047.57 1383.18 3071.5 1383.04 3095.43 1383.18 3118.67 1383.59 3141.1 1384.26 3162.6 1385.16 3183.06 1386.3 3202.36 1387.65 3220.39 1389.21 3228.88 1390.06 3237.01 1390.95 3244.77 1391.89 3252.13 1392.87 3259.08 1393.89 3265.61 1394.95 3271.7 1396.05 3277.35 1397.18 3282.53 1398.35 3287.22 1399.55 3291.43 1400.78 3295.13 1402.04 3298.31 1403.33 3300.95 1404.65 3303.05 1406C3303.07 1406.02 3303.09 1406.03 3303.11 1406.05L3304.6 1407.4C3304.63 1407.43 3304.65 1407.46 3304.67 1407.49L3305.58 1408.86C3305.61 1408.91 3305.63 1408.96 3305.64 1409.01L3305.95 1410.4C3305.95 1410.43 3305.96 1410.47 3305.96 1410.5L3305.96 1572.5C3305.96 1572.53 3305.95 1572.57 3305.95 1572.6L3305.64 1573.99C3305.63 1574.04 3305.61 1574.09 3305.58 1574.14L3304.67 1575.51C3304.65 1575.54 3304.63 1575.57 3304.6 1575.6L3303.11 1576.95C3303.09 1576.97 3303.07 1576.98 3303.05 1577L3300.99 1578.33 3298.34 1579.66 3295.15 1580.95 3291.45 1582.22 3287.24 1583.45 3282.54 1584.65 3277.36 1585.82 3271.71 1586.95 3265.62 1588.05 3259.09 1589.11 3252.13 1590.13 3244.77 1591.11 3237.02 1592.05 3228.89 1592.94 3220.39 1593.79 3202.37 1595.35 3183.07 1596.7 3162.61 1597.84 3141.1 1598.74 3118.67 1599.41 3095.43 1599.82 3071.5 1599.96 3047.57 1599.82 3024.33 1599.41 3001.9 1598.74 2980.4 1597.84 2959.94 1596.7 2940.64 1595.35 2922.61 1593.79 2914.12 1592.94 2905.99 1592.05 2898.23 1591.11 2890.87 1590.13 2883.92 1589.11 2877.39 1588.05 2871.3 1586.95 2865.65 1585.82 2860.47 1584.65 2855.78 1583.45 2851.57 1582.22 2847.87 1580.96 2844.69 1579.67 2842.05 1578.35 2839.95 1577C2839.93 1576.98 2839.91 1576.97 2839.89 1576.95L2838.4 1575.6C2838.37 1575.57 2838.35 1575.54 2838.33 1575.51L2837.42 1574.14C2837.39 1574.09 2837.37 1574.04 2837.36 1573.99L2837.05 1572.6C2837.05 1572.57 2837.04 1572.53 2837.04 1572.5L2837.04 1410.5 2837.59 1410.5 2837.59 1572.49 2837.89 1573.85 2838.78 1575.2 2840.25 1576.54 2842.3 1577.86 2844.9 1579.16 2848.05 1580.44 2851.73 1581.7 2855.91 1582.92 2860.6 1584.12 2865.76 1585.28 2871.39 1586.41 2877.48 1587.51 2884 1588.56 2890.95 1589.58 2898.3 1590.56 2906.05 1591.5 2914.17 1592.39 2922.66 1593.24 2940.68 1594.8 2959.97 1596.15 2980.42 1597.29 3001.92 1598.19 3024.34 1598.86 3047.58 1599.27 3071.5 1599.41 3095.42 1599.27 3118.66 1598.86 3141.08 1598.19 3162.58 1597.29 3183.03 1596.15 3202.32 1594.8 3220.34 1593.24 3228.83 1592.39 3236.95 1591.5 3244.7 1590.56 3252.05 1589.58 3259 1588.56 3265.52 1587.51 3271.6 1586.41 3277.24 1585.28 3282.4 1584.12 3287.09 1582.92 3291.27 1581.7 3294.95 1580.44 3298.09 1579.17 3300.7 1577.86 3302.75 1576.54 3304.22 1575.2 3305.11 1573.85 3305.41 1572.49 3305.41 1410.51 3305.11 1409.15 3304.22 1407.8 3302.75 1406.46 3300.71 1405.14 3298.1 1403.84 3294.95 1402.56 3291.28 1401.3 3287.09 1400.08 3282.41 1398.88 3277.24 1397.72 3271.61 1396.59 3265.52 1395.49 3259 1394.44 3252.05 1393.42 3244.7 1392.44 3236.95 1391.5 3228.83 1390.61 3220.34 1389.76 3202.33 1388.2 3183.03 1386.85 3162.58 1385.71 3141.08 1384.81 3118.66 1384.14 3095.42 1383.73 3071.5 1383.59 3047.58 1383.73 3024.34 1384.14 3001.92 1384.81 2980.42 1385.71 2959.97 1386.85 2940.68 1388.2 2922.66 1389.76 2914.17 1390.61 2906.05 1391.5 2898.3 1392.44 2890.95 1393.42 2884 1394.44 2877.48 1395.49 2871.4 1396.59 2865.76 1397.72 2860.6 1398.88 2855.91 1400.08 2851.73 1401.3 2848.05 1402.56 2844.91 1403.83 2842.3 1405.14 2840.25 1406.46 2838.78 1407.8 2837.89 1409.15 2837.59 1410.5 2837.89 1411.85 2838.78 1413.2 2840.25 1414.54 2842.3 1415.86 2844.9 1417.16 2848.05 1418.44 2851.73 1419.7 2855.91 1420.92 2860.6 1422.12 2865.76 1423.28 2871.39 1424.41 2877.48 1425.51 2884 1426.56 2890.95 1427.58 2898.3 1428.56 2906.05 1429.5 2914.17 1430.4 2922.66 1431.24 2940.68 1432.8 2959.97 1434.15 2980.42 1435.29 3001.92 1436.19 3024.34 1436.86 3047.58 1437.27 3071.5 1437.41 3095.42 1437.27 3118.66 1436.86 3141.08 1436.19 3162.58 1435.29 3183.03 1434.15 3202.32 1432.8 3220.34 1431.24 3228.83 1430.4 3236.95 1429.5 3244.7 1428.56 3252.05 1427.58 3259 1426.56 3265.52 1425.51 3271.6 1424.41 3277.24 1423.28 3282.4 1422.12 3287.09 1420.92 3291.27 1419.7 3294.95 1418.44 3298.09 1417.17 3300.7 1415.86 3302.75 1414.54 3304.22 1413.2 3305.11 1411.85 3305.41 1410.48ZM3305.23 1410.44 3304.94 1411.78 3304.08 1413.08 3302.64 1414.39 3300.6 1415.71 3298.01 1417 3294.88 1418.27 3291.21 1419.52 3287.03 1420.75 3282.36 1421.94 3277.2 1423.1 3271.57 1424.23 3265.49 1425.33 3258.97 1426.38 3252.03 1427.4 3244.67 1428.38 3236.93 1429.32 3228.81 1430.21 3220.32 1431.06 3202.31 1432.62 3183.02 1433.97 3162.57 1435.1 3141.07 1436.01 3118.65 1436.68 3095.42 1437.09 3071.5 1437.23 3047.58 1437.09 3024.35 1436.68 3001.92 1436.01 2980.43 1435.1 2959.98 1433.97 2940.69 1432.61 2922.68 1431.06 2914.19 1430.21 2906.07 1429.32 2898.32 1428.38 2890.97 1427.4 2884.03 1426.38 2877.51 1425.32 2871.43 1424.23 2865.8 1423.1 2860.64 1421.94 2855.96 1420.74 2851.78 1419.52 2848.11 1418.27 2844.97 1416.99 2842.38 1415.7 2840.36 1414.39 2838.92 1413.08 2838.06 1411.78 2837.78 1410.5 2838.06 1409.22 2838.92 1407.92 2840.36 1406.61 2842.4 1405.29 2844.99 1404 2848.12 1402.73 2851.79 1401.48 2855.97 1400.25 2860.64 1399.06 2865.8 1397.9 2871.43 1396.77 2877.51 1395.67 2884.03 1394.62 2890.97 1393.6 2898.33 1392.62 2906.07 1391.68 2914.19 1390.79 2922.68 1389.94 2940.69 1388.39 2959.98 1387.03 2980.43 1385.9 3001.93 1384.99 3024.35 1384.32 3047.58 1383.91 3071.5 1383.78 3095.42 1383.91 3118.65 1384.32 3141.08 1384.99 3162.57 1385.9 3183.02 1387.03 3202.31 1388.39 3220.32 1389.94 3228.81 1390.79 3236.93 1391.68 3244.68 1392.62 3252.03 1393.6 3258.97 1394.62 3265.49 1395.68 3271.57 1396.77 3277.2 1397.9 3282.36 1399.06 3287.04 1400.26 3291.22 1401.48 3294.89 1402.73 3298.03 1404.01 3300.62 1405.3 3302.64 1406.61 3304.08 1407.92 3304.94 1409.22 3305.23 1410.53 3305.23 1572.47 3304.94 1573.78 3304.08 1575.08 3302.64 1576.39 3300.6 1577.71 3298.01 1579 3294.88 1580.27 3291.21 1581.52 3287.03 1582.75 3282.36 1583.94 3277.2 1585.1 3271.57 1586.23 3265.49 1587.33 3258.97 1588.38 3252.03 1589.4 3244.67 1590.38 3236.93 1591.32 3228.81 1592.21 3220.32 1593.06 3202.31 1594.61 3183.02 1595.97 3162.57 1597.1 3141.07 1598.01 3118.65 1598.68 3095.42 1599.09 3071.5 1599.22 3047.58 1599.09 3024.35 1598.68 3001.92 1598.01 2980.43 1597.1 2959.98 1595.97 2940.69 1594.61 2922.68 1593.06 2914.19 1592.21 2906.07 1591.32 2898.32 1590.38 2890.97 1589.4 2884.03 1588.38 2877.51 1587.32 2871.43 1586.23 2865.8 1585.1 2860.64 1583.94 2855.96 1582.74 2851.78 1581.52 2848.11 1580.27 2844.97 1578.99 2842.38 1577.7 2840.36 1576.39 2838.92 1575.08 2838.06 1573.78 2837.78 1572.47 2837.78 1410.5 2837.96 1410.5 2837.96 1572.45 2838.23 1573.71 2839.06 1574.96 2840.48 1576.25 2842.46 1577.53 2845.04 1578.82 2848.17 1580.1 2851.83 1581.34 2856 1582.57 2860.68 1583.76 2865.83 1584.92 2871.46 1586.05 2877.54 1587.14 2884.05 1588.2 2890.99 1589.22 2898.34 1590.2 2906.09 1591.14 2914.21 1592.03 2922.69 1592.88 2940.7 1594.43 2959.99 1595.78 2980.44 1596.92 3001.93 1597.83 3024.35 1598.49 3047.58 1598.9 3071.5 1599.04 3095.42 1598.9 3118.65 1598.49 3141.07 1597.83 3162.56 1596.92 3183.01 1595.78 3202.29 1594.43 3220.3 1592.88 3228.79 1592.03 3236.91 1591.14 3244.65 1590.2 3252 1589.22 3258.94 1588.2 3265.46 1587.14 3271.53 1586.05 3277.16 1584.92 3282.31 1583.76 3286.98 1582.57 3291.15 1581.35 3294.81 1580.1 3297.93 1578.84 3300.5 1577.56 3302.52 1576.25 3303.94 1574.96 3304.77 1573.71 3305.04 1572.45 3305.04 1410.55 3304.77 1409.29 3303.94 1408.04 3302.52 1406.75 3300.54 1405.47 3297.96 1404.18 3294.83 1402.91 3291.17 1401.66 3287 1400.43 3282.32 1399.24 3277.17 1398.08 3271.54 1396.95 3265.46 1395.86 3258.95 1394.8 3252.01 1393.78 3244.66 1392.8 3236.91 1391.86 3228.79 1390.97 3220.31 1390.12 3202.3 1388.57 3183.01 1387.22 3162.56 1386.08 3141.07 1385.17 3118.65 1384.51 3095.42 1384.1 3071.5 1383.96 3047.58 1384.1 3024.35 1384.51 3001.94 1385.17 2980.44 1386.08 2959.99 1387.22 2940.71 1388.57 2922.7 1390.12 2914.21 1390.97 2906.09 1391.86 2898.35 1392.8 2891 1393.78 2884.06 1394.8 2877.54 1395.86 2871.47 1396.95 2865.84 1398.08 2860.69 1399.24 2856.02 1400.43 2851.85 1401.65 2848.19 1402.9 2845.07 1404.16 2842.5 1405.44 2840.48 1406.75 2839.06 1408.04 2838.23 1409.29 2837.97 1410.5 2838.23 1411.71 2839.06 1412.96 2840.48 1414.25 2842.46 1415.53 2845.04 1416.82 2848.17 1418.1 2851.83 1419.34 2856 1420.57 2860.68 1421.76 2865.83 1422.92 2871.46 1424.05 2877.54 1425.14 2884.05 1426.2 2890.99 1427.22 2898.34 1428.2 2906.09 1429.14 2914.21 1430.03 2922.69 1430.88 2940.7 1432.43 2959.99 1433.78 2980.44 1434.92 3001.93 1435.83 3024.35 1436.49 3047.58 1436.9 3071.5 1437.04 3095.42 1436.9 3118.65 1436.49 3141.07 1435.83 3162.56 1434.92 3183.01 1433.78 3202.29 1432.43 3220.3 1430.88 3228.79 1430.03 3236.91 1429.14 3244.65 1428.2 3252 1427.22 3258.94 1426.2 3265.46 1425.15 3271.53 1424.05 3277.16 1422.92 3282.31 1421.76 3286.98 1420.57 3291.15 1419.35 3294.81 1418.1 3297.93 1416.84 3300.5 1415.56 3302.52 1414.25 3303.94 1412.96 3304.77 1411.71 3305.05 1410.4Z" fill="#4F6228" fill-rule="nonzero" fill-opacity="1"/><text fill="#404040" fill-opacity="1" font-family="Arial,Arial_MSFontService,sans-serif" font-style="normal" font-variant="normal" font-weight="700" font-stretch="normal" font-size="55" text-anchor="start" direction="ltr" writing-mode="lr-tb" unicode-bidi="normal" text-decoration="none" transform="matrix(1 0 0 1 2889.31 1525)">Local Storage</text><path d="M2902.5 1763.5C2902.5 1778.41 3007.27 1790.5 3136.5 1790.5 3265.73 1790.5 3370.5 1778.41 3370.5 1763.5L3370.5 1925.5C3370.5 1940.41 3265.73 1952.5 3136.5 1952.5 3007.27 1952.5 2902.5 1940.41 2902.5 1925.5Z" fill="#C8E37D" fill-rule="evenodd" fill-opacity="1"/><path d="M2902.5 1763.5C2902.5 1748.59 3007.27 1736.5 3136.5 1736.5 3265.73 1736.5 3370.5 1748.59 3370.5 1763.5 3370.5 1778.41 3265.73 1790.5 3136.5 1790.5 3007.27 1790.5 2902.5 1778.41 2902.5 1763.5Z" fill="#DEEEB1" fill-rule="evenodd" fill-opacity="1"/><path d="M3370.5 1763.5C3370.5 1778.41 3265.73 1790.5 3136.5 1790.5 3007.27 1790.5 2902.5 1778.41 2902.5 1763.5 2902.5 1748.59 3007.27 1736.5 3136.5 1736.5 3265.73 1736.5 3370.5 1748.59 3370.5 1763.5L3370.5 1925.5C3370.5 1940.41 3265.73 1952.5 3136.5 1952.5 3007.27 1952.5 2902.5 1940.41 2902.5 1925.5L2902.5 1763.5" stroke="#4F6228" stroke-width="0.916667" stroke-linecap="butt" stroke-linejoin="round" stroke-miterlimit="10" stroke-opacity="1" fill="none" fill-rule="evenodd"/><text fill="#404040" fill-opacity="1" font-family="Arial,Arial_MSFontService,sans-serif" font-style="normal" font-variant="normal" font-weight="700" font-stretch="normal" font-size="55" text-anchor="start" direction="ltr" writing-mode="lr-tb" unicode-bidi="normal" text-decoration="none" transform="matrix(1 0 0 1 2954.13 1878)">Local Storage</text><path d="M3001.38 1279.19 3060.77 1364.28C3061.5 1365.32 3061.24 1366.75 3060.21 1367.48 3059.17 1368.2 3057.74 1367.95 3057.01 1366.91L2997.62 1281.81C2996.9 1280.77 2997.15 1279.35 2998.19 1278.62 2999.23 1277.9 3000.65 1278.15 3001.38 1279.19ZM3063.79 1356.59 3072.01 1384.39 3048.75 1367.08Z" fill="#CD665F" fill-rule="nonzero" fill-opacity="1"/><path d="M3138.35 1951.15 3196.34 2030.96C3197.09 2031.98 3196.86 2033.41 3195.84 2034.16 3194.81 2034.9 3193.38 2034.68 3192.64 2033.65L3134.65 1953.85C3133.9 1952.82 3134.13 1951.39 3135.15 1950.65 3136.18 1949.9 3137.61 1950.13 3138.35 1951.15ZM3199.21 2023.21 3207.96 2050.84 3184.38 2033.98Z" fill="#CD665F" fill-rule="nonzero" fill-opacity="1"/><path d="M3073.57 1598.52 3079.46 1610.95C3080 1612.09 3079.51 1613.46 3078.37 1614 3077.22 1614.54 3075.85 1614.05 3075.31 1612.91L3069.43 1600.48C3068.89 1599.34 3069.38 1597.97 3070.52 1597.43 3071.66 1596.89 3073.03 1597.38 3073.57 1598.52ZM3087.3 1627.52 3093.19 1639.94C3093.73 1641.09 3093.24 1642.45 3092.1 1642.99 3090.95 1643.54 3089.59 1643.05 3089.04 1641.9L3083.16 1629.48C3082.62 1628.33 3083.11 1626.97 3084.25 1626.43 3085.39 1625.88 3086.76 1626.37 3087.3 1627.52ZM3101.03 1656.51 3106.92 1668.94C3107.46 1670.08 3106.97 1671.45 3105.83 1671.99 3104.68 1672.53 3103.32 1672.05 3102.77 1670.9L3096.89 1658.47C3096.35 1657.33 3096.84 1655.96 3097.98 1655.42 3099.12 1654.88 3100.49 1655.37 3101.03 1656.51ZM3114.76 1685.51 3120.65 1697.94C3121.19 1699.08 3120.7 1700.45 3119.56 1700.99 3118.41 1701.53 3117.05 1701.04 3116.51 1699.9L3110.62 1687.47C3110.08 1686.33 3110.57 1684.96 3111.71 1684.42 3112.86 1683.88 3114.22 1684.37 3114.76 1685.51ZM3128.49 1714.51 3128.58 1714.69C3129.12 1715.83 3128.63 1717.2 3127.49 1717.74 3126.34 1718.28 3124.98 1717.79 3124.44 1716.65L3124.35 1716.47C3123.81 1715.32 3124.3 1713.96 3125.44 1713.42 3126.59 1712.87 3127.95 1713.36 3128.49 1714.51ZM3132.83 1707.6 3136.32 1736.38 3116.26 1715.45Z" fill="#CD665F" fill-rule="nonzero" fill-opacity="1"/><rect x="2999.5" y="1142.5" width="71.9998" height="139" stroke="#31859C" stroke-width="0.916667" stroke-linecap="butt" stroke-linejoin="round" stroke-miterlimit="10" stroke-opacity="1" fill="#95B3D7" fill-opacity="1"/><text fill="#4A452A" fill-opacity="1" font-family="Arial,Arial_MSFontService,sans-serif" font-style="normal" font-variant="normal" font-weight="700" font-stretch="normal" font-size="55" text-anchor="start" direction="ltr" writing-mode="lr-tb" unicode-bidi="normal" text-decoration="none" transform="matrix(1 0 0 1 3008.89 1231)">W</text><text fill="#984807" fill-opacity="1" font-family="Arial,Arial_MSFontService,sans-serif" font-style="normal" font-variant="normal" font-weight="700" font-stretch="normal" font-size="55" text-anchor="start" direction="ltr" writing-mode="lr-tb" unicode-bidi="normal" text-decoration="none" transform="matrix(1 0 0 1 3228.89 1655)">I/O intercepting wrapper lib </text><text fill="#984807" fill-opacity="1" font-family="Arial,Arial_MSFontService,sans-serif" font-style="normal" font-variant="normal" font-weight="700" font-stretch="normal" font-size="55" text-anchor="start" direction="ltr" writing-mode="lr-tb" unicode-bidi="normal" text-decoration="none" transform="matrix(1 0 0 1 3228.89 1721)">relying on KVS + RPC</text><rect x="3140.5" y="2052.5" width="67" height="139" fill="#95B3D7" fill-opacity="1"/><path d="M3140.04 2052.5C3140.04 2052.25 3140.25 2052.04 3140.5 2052.04L3207.5 2052.04C3207.75 2052.04 3207.96 2052.25 3207.96 2052.5L3207.96 2191.5C3207.96 2191.75 3207.75 2191.96 3207.5 2191.96L3140.5 2191.96C3140.25 2191.96 3140.04 2191.75 3140.04 2191.5ZM3140.59 2191.41 3207.41 2191.41 3207.41 2052.59 3140.59 2052.59ZM3140.77 2052.77 3207.23 2052.77 3207.23 2191.22 3140.77 2191.22ZM3140.96 2191.04 3207.04 2191.04 3207.04 2052.96 3140.96 2052.96Z" fill="#31859C" fill-rule="nonzero" fill-opacity="1"/><text fill="#4A452A" fill-opacity="1" font-family="Arial,Arial_MSFontService,sans-serif" font-style="normal" font-variant="normal" font-weight="700" font-stretch="normal" font-size="55" text-anchor="start" direction="ltr" writing-mode="lr-tb" unicode-bidi="normal" text-decoration="none" transform="matrix(1 0 0 1 3153.94 2141)">R</text></g></svg>