<svg width="1751" height="853" xmlns="http://www.w3.org/2000/svg" xmlns:xlink="http://www.w3.org/1999/xlink" xml:space="preserve" overflow="hidden"><defs><clipPath id="clip0"><rect x="311" y="1168" width="1751" height="853"/></clipPath></defs><g clip-path="url(#clip0)" transform="translate(-311 -1168)"><rect x="1214" y="1314" width="34" height="495" fill="#C9C668" fill-opacity="0.901961"/><path d="M0 0 942.505 0.450394" stroke="#4A7EBB" stroke-width="4.58333" stroke-linecap="round" stroke-linejoin="round" stroke-miterlimit="10" stroke-opacity="1" fill="none" fill-rule="evenodd" transform="matrix(1 0 0 -1 466.5 1628.95)"/><rect x="1251.5" y="1561.5" width="150" height="139" fill="#95B3D7" fill-opacity="1"/><path d="M1251.04 1561.5C1251.04 1561.25 1251.25 1561.04 1251.5 1561.04L1401.5 1561.04C1401.75 1561.04 1401.96 1561.25 1401.96 1561.5L1401.96 1700.5C1401.96 1700.75 1401.75 1700.96 1401.5 1700.96L1251.5 1700.96C1251.25 1700.96 1251.04 1700.75 1251.04 1700.5ZM1251.59 1700.41 1401.41 1700.41 1401.41 1561.59 1251.59 1561.59ZM1251.78 1561.78 1401.22 1561.78 1401.22 1700.22 1251.78 1700.22ZM1251.96 1700.04 1401.04 1700.04 1401.04 1561.96 1251.96 1561.96Z" fill="#31859C" fill-rule="nonzero" fill-opacity="1"/><text fill="#404040" fill-opacity="1" font-family="Arial,Arial_MSFontService,sans-serif" font-style="normal" font-variant="normal" font-weight="700" font-stretch="normal" font-size="55" text-anchor="start" direction="ltr" writing-mode="lr-tb" unicode-bidi="normal" text-decoration="none" transform="matrix(1 0 0 1 1306 1650)">R</text><rect x="1011.5" y="1382.5" width="240" height="139" fill="#95B3D7" fill-opacity="1"/><path d="M1011.04 1382.5C1011.04 1382.25 1011.25 1382.04 1011.5 1382.04L1251.5 1382.04C1251.75 1382.04 1251.96 1382.25 1251.96 1382.5L1251.96 1521.5C1251.96 1521.75 1251.75 1521.96 1251.5 1521.96L1011.5 1521.96C1011.25 1521.96 1011.04 1521.75 1011.04 1521.5ZM1011.59 1521.41 1251.41 1521.41 1251.41 1382.59 1011.59 1382.59ZM1011.78 1382.78 1251.23 1382.78 1251.23 1521.22 1011.78 1521.22ZM1011.96 1521.04 1251.04 1521.04 1251.04 1382.96 1011.96 1382.96Z" fill="#31859C" fill-rule="nonzero" fill-opacity="1"/><text fill="#404040" fill-opacity="1" font-family="Arial,Arial_MSFontService,sans-serif" font-style="normal" font-variant="normal" font-weight="700" font-stretch="normal" font-size="55" text-anchor="start" direction="ltr" writing-mode="lr-tb" unicode-bidi="normal" text-decoration="none" transform="matrix(1 0 0 1 1104.55 1472)">W</text><rect x="1393.5" y="1561.5" width="553" height="139" fill="#6F9ABD" fill-opacity="1"/><path d="M1393.04 1561.5C1393.04 1561.25 1393.25 1561.04 1393.5 1561.04L1946.5 1561.04C1946.75 1561.04 1946.96 1561.25 1946.96 1561.5L1946.96 1700.5C1946.96 1700.75 1946.75 1700.96 1946.5 1700.96L1393.5 1700.96C1393.25 1700.96 1393.04 1700.75 1393.04 1700.5ZM1393.59 1700.41 1946.41 1700.41 1946.41 1561.59 1393.59 1561.59ZM1393.78 1561.78 1946.23 1561.78 1946.23 1700.22 1393.78 1700.22ZM1393.96 1700.04 1946.04 1700.04 1946.04 1561.96 1393.96 1561.96Z" fill="#31859C" fill-rule="nonzero" fill-opacity="1"/><text fill="#FFFFFF" fill-opacity="1" font-family="Arial,Arial_MSFontService,sans-serif" font-style="normal" font-variant="normal" font-weight="700" font-stretch="normal" font-size="55" text-anchor="start" direction="ltr" writing-mode="lr-tb" unicode-bidi="normal" text-decoration="none" transform="matrix(1 0 0 1 1533.7 1650)">Consumer</text><rect x="1248.5" y="1382.5" width="553" height="139" fill="#6F9ABD" fill-opacity="1"/><path d="M1248.04 1382.5C1248.04 1382.25 1248.25 1382.04 1248.5 1382.04L1801.5 1382.04C1801.75 1382.04 1801.96 1382.25 1801.96 1382.5L1801.96 1521.5C1801.96 1521.75 1801.75 1521.96 1801.5 1521.96L1248.5 1521.96C1248.25 1521.96 1248.04 1521.75 1248.04 1521.5ZM1248.59 1521.41 1801.41 1521.41 1801.41 1382.59 1248.59 1382.59ZM1248.78 1382.78 1801.23 1382.78 1801.23 1521.22 1248.78 1521.22ZM1248.96 1521.04 1801.04 1521.04 1801.04 1382.96 1248.96 1382.96Z" fill="#31859C" fill-rule="nonzero" fill-opacity="1"/><rect x="466.5" y="1382.5" width="553" height="139" fill="#6F9ABD" fill-opacity="1"/><path d="M466.042 1382.5C466.042 1382.25 466.247 1382.04 466.5 1382.04L1019.5 1382.04C1019.75 1382.04 1019.96 1382.25 1019.96 1382.5L1019.96 1521.5C1019.96 1521.75 1019.75 1521.96 1019.5 1521.96L466.5 1521.96C466.247 1521.96 466.042 1521.75 466.042 1521.5ZM466.592 1521.41 1019.41 1521.41 1019.41 1382.59 466.592 1382.59ZM466.775 1382.78 1019.23 1382.78 1019.23 1521.22 466.775 1521.22ZM466.958 1521.04 1019.04 1521.04 1019.04 1382.96 466.958 1382.96Z" fill="#31859C" fill-rule="nonzero" fill-opacity="1"/><text fill="#FFFFFF" fill-opacity="1" font-family="Arial,Arial_MSFontService,sans-serif" font-style="normal" font-variant="normal" font-weight="700" font-stretch="normal" font-size="55" text-anchor="start" direction="ltr" writing-mode="lr-tb" unicode-bidi="normal" text-decoration="none" transform="matrix(1 0 0 1 621.936 1472)">Producer</text><text fill="#000000" fill-opacity="1" font-family="Arial,Arial_MSFontService,sans-serif" font-style="normal" font-variant="normal" font-weight="700" font-stretch="normal" font-size="55" text-anchor="start" direction="ltr" writing-mode="lr-tb" unicode-bidi="normal" text-decoration="none" transform="matrix(1 0 0 1 345.284 1454)">P1</text><text fill="#000000" fill-opacity="1" font-family="Arial,Arial_MSFontService,sans-serif" font-style="normal" font-variant="normal" font-weight="700" font-stretch="normal" font-size="55" text-anchor="start" direction="ltr" writing-mode="lr-tb" unicode-bidi="normal" text-decoration="none" transform="matrix(1 0 0 1 345.284 1631)">P2</text><path d="M1946.5 1628.21 2011.4 1628.21C2012.66 1628.21 2013.69 1629.23 2013.69 1630.5 2013.69 1631.77 2012.66 1632.79 2011.4 1632.79L1946.5 1632.79C1945.23 1632.79 1944.21 1631.77 1944.21 1630.5 1944.21 1629.23 1945.23 1628.21 1946.5 1628.21ZM2006.81 1621.33 2034.31 1630.5 2006.81 1639.67Z" fill="#4A7EBB" fill-rule="nonzero" fill-opacity="1"/><path d="M1801.5 1450.21 2012.37 1450.21C2013.63 1450.21 2014.66 1451.24 2014.66 1452.5 2014.66 1453.77 2013.63 1454.79 2012.37 1454.79L1801.5 1454.79C1800.23 1454.79 1799.21 1453.77 1799.21 1452.5 1799.21 1451.23 1800.23 1450.21 1801.5 1450.21ZM2007.78 1443.33 2035.28 1452.5 2007.78 1461.67Z" fill="#4A7EBB" fill-rule="nonzero" fill-opacity="1"/><path d="M1012.5 1827.5C1012.5 1842.41 1117.27 1854.5 1246.5 1854.5 1375.73 1854.5 1480.5 1842.41 1480.5 1827.5L1480.5 1989.5C1480.5 2004.41 1375.73 2016.5 1246.5 2016.5 1117.27 2016.5 1012.5 2004.41 1012.5 1989.5Z" fill="#CD665F" fill-rule="evenodd" fill-opacity="1"/><path d="M1012.5 1827.5C1012.5 1812.59 1117.27 1800.5 1246.5 1800.5 1375.73 1800.5 1480.5 1812.59 1480.5 1827.5 1480.5 1842.41 1375.73 1854.5 1246.5 1854.5 1117.27 1854.5 1012.5 1842.41 1012.5 1827.5Z" fill="#E1A39F" fill-rule="evenodd" fill-opacity="1"/><path d="M1480.5 1827.5C1480.5 1842.41 1375.73 1854.5 1246.5 1854.5 1117.27 1854.5 1012.5 1842.41 1012.5 1827.5 1012.5 1812.59 1117.27 1800.5 1246.5 1800.5 1375.73 1800.5 1480.5 1812.59 1480.5 1827.5L1480.5 1989.5C1480.5 2004.41 1375.73 2016.5 1246.5 2016.5 1117.27 2016.5 1012.5 2004.41 1012.5 1989.5L1012.5 1827.5" stroke="#C0306C" stroke-width="0.916667" stroke-linecap="butt" stroke-linejoin="round" stroke-miterlimit="10" stroke-opacity="1" fill="none" fill-rule="evenodd"/><text fill="#FFFFFF" fill-opacity="1" font-family="Arial,Arial_MSFontService,sans-serif" font-style="normal" font-variant="normal" font-weight="700" font-stretch="normal" font-size="55" text-anchor="start" direction="ltr" writing-mode="lr-tb" unicode-bidi="normal" text-decoration="none" transform="matrix(1 0 0 1 1109.7 1942)">Shared FS</text><path d="M1026.29 1520.07 1234.16 1781.5C1234.94 1782.49 1234.78 1783.93 1233.79 1784.72 1232.8 1785.51 1231.36 1785.34 1230.57 1784.35L1022.71 1522.93C1021.92 1521.94 1022.08 1520.49 1023.07 1519.71 1024.06 1518.92 1025.51 1519.08 1026.29 1520.07ZM1236.68 1773.63 1246.62 1800.86 1222.33 1785.04Z" fill="#CD665F" fill-rule="nonzero" fill-opacity="1"/><path d="M1.29107-1.89338 129.691 85.6608C130.737 86.3739 131.006 87.7996 130.293 88.8453 129.58 89.891 128.154 90.1606 127.109 89.4476L-1.29107 1.89338C-2.33675 1.18034-2.60641-0.245386-1.89338-1.29107-1.18034-2.33675 0.245386-2.60641 1.29107-1.89338ZM129.777 77.3985 147.334 100.465 119.449 92.5455Z" fill="#CD665F" fill-rule="nonzero" fill-opacity="1" transform="matrix(1 0 0 -1 1246.5 1800.96)"/><rect x="1132" y="1180" width="237" height="134" fill="#C9C668" fill-opacity="1"/><text fill="#948A54" fill-opacity="1" font-family="Arial,Arial_MSFontService,sans-serif" font-style="normal" font-variant="normal" font-weight="400" font-stretch="normal" font-size="83" text-anchor="start" direction="ltr" writing-mode="lr-tb" unicode-bidi="normal" text-decoration="none" transform="matrix(1 0 0 1 1165.71 1277)">sync</text><path d="M2.29156-0.0223059 2.42539 13.727C2.43771 14.9926 1.42173 16.0286 0.156141 16.0409-1.10945 16.0532-2.1454 15.0372-2.15772 13.7717L-2.29156 0.0223059C-2.30388-1.24329-1.2879-2.27924-0.0223059-2.29156 1.24329-2.30388 2.27924-1.2879 2.29156-0.0223059ZM2.60384 32.0595 2.73768 45.8089C2.75 47.0744 1.73402 48.1104 0.468424 48.1227-0.797169 48.135-1.83312 47.1191-1.84544 45.8535L-1.97928 32.1041C-1.99159 30.8385-0.975616 29.8026 0.289977 29.7903 1.55557 29.7779 2.59152 30.7939 2.60384 32.0595ZM2.91612 64.1413 3.04996 77.8907C3.06228 79.1563 2.0463 80.1922 0.780707 80.2045-0.484886 80.2169-1.52084 79.2009-1.53316 77.9353L-1.66699 64.1859C-1.67931 62.9203-0.663333 61.8844 0.602259 61.8721 1.86785 61.8598 2.9038 62.8757 2.91612 64.1413ZM3.22841 96.2231 3.36224 109.972C3.37456 111.238 2.35858 112.274 1.09299 112.286-0.172604 112.299-1.20856 111.283-1.22087 110.017L-1.35471 96.2678C-1.36703 95.0022-0.351051 93.9662 0.914542 93.9539 2.18013 93.9416 3.21609 94.9575 3.22841 96.2231ZM3.54069 128.305 3.67452 142.054C3.68684 143.32 2.67086 144.356 1.40527 144.368 0.139679 144.38-0.896273 143.365-0.908592 142.099L-1.04243 128.35C-1.05475 127.084-0.0387682 126.048 1.22682 126.036 2.49242 126.023 3.52837 127.039 3.54069 128.305ZM3.85297 160.387 3.98681 174.136C3.99913 175.402 2.98315 176.438 1.71755 176.45 0.451962 176.462-0.583991 175.446-0.59631 174.181L-0.730145 160.431C-0.742464 159.166 0.273514 158.13 1.53911 158.118 2.8047 158.105 3.84065 159.121 3.85297 160.387ZM4.16525 192.469 4.29909 206.218C4.31141 207.484 3.29543 208.519 2.02984 208.532 0.764244 208.544-0.271708 207.528-0.284027 206.263L-0.417862 192.513C-0.430182 191.248 0.585797 190.212 1.85139 190.199 3.11698 190.187 4.15293 191.203 4.16525 192.469ZM4.47754 224.55 4.61137 238.3C4.62369 239.565 3.60771 240.601 2.34212 240.614 1.07653 240.626 0.0405747 239.61 0.0282555 238.344L-0.10558 224.595C-0.117899 223.329 0.89808 222.293 2.16367 222.281 3.42927 222.269 4.46522 223.285 4.47754 224.55ZM4.78982 256.632 4.92365 270.382C4.93597 271.647 3.91999 272.683 2.6544 272.695 1.38881 272.708 0.352857 271.692 0.340538 270.426L0.206703 256.677C0.194384 255.411 1.21036 254.375 2.47596 254.363 3.74155 254.351 4.7775 255.367 4.78982 256.632ZM5.1021 288.714 5.23594 302.463C5.24826 303.729 4.23228 304.765 2.96668 304.777 1.70109 304.79 0.66514 303.774 0.652821 302.508L0.518985 288.759C0.506666 287.493 1.52264 286.457 2.78824 286.445 4.05383 286.432 5.08978 287.448 5.1021 288.714ZM5.41438 320.796 5.54822 334.545C5.56054 335.811 4.54456 336.847 3.27897 336.859 2.01337 336.871 0.977423 335.855 0.965103 334.59L0.831268 320.84C0.818949 319.575 1.83493 318.539 3.10052 318.527 4.36611 318.514 5.40206 319.53 5.41438 320.796ZM5.72667 352.878 5.8605 366.627C5.87282 367.893 4.85684 368.929 3.59125 368.941 2.32566 368.953 1.28971 367.937 1.27739 366.672L1.14355 352.922C1.13123 351.657 2.14721 350.621 3.4128 350.608 4.6784 350.596 5.71435 351.612 5.72667 352.878ZM6.03895 384.959 6.17279 398.709C6.1851 399.974 5.16913 401.01 3.90353 401.023 2.63794 401.035 1.60199 400.019 1.58967 398.753L1.45583 385.004C1.44351 383.738 2.45949 382.702 3.72509 382.69 4.99068 382.678 6.02663 383.694 6.03895 384.959ZM6.35123 417.041 6.48507 430.791C6.49739 432.056 5.48141 433.092 4.21582 433.105 2.95022 433.117 1.91427 432.101 1.90195 430.835L1.76812 417.086C1.7558 415.82 2.77178 414.784 4.03737 414.772 5.30296 414.76 6.33891 415.776 6.35123 417.041ZM6.66351 449.123 6.79735 462.872C6.80967 464.138 5.79369 465.174 4.5281 465.186 3.26251 465.199 2.22655 464.183 2.21423 462.917L2.0804 449.168C2.06808 447.902 3.08406 446.866 4.34965 446.854 5.61524 446.842 6.6512 447.858 6.66351 449.123ZM6.9758 481.205 7.02574 486.336C7.03806 487.602 6.02209 488.638 4.75649 488.65 3.4909 488.662 2.45495 487.646 2.44263 486.381L2.39268 481.249C2.38036 479.984 3.39634 478.948 4.66193 478.936 5.92753 478.923 6.96348 479.939 6.9758 481.205Z" fill="#CD665F" fill-rule="nonzero" fill-opacity="1" transform="matrix(-1 0 0 1 1251.23 1314.5)"/></g></svg>